<svg xmlns="http://www.w3.org/2000/svg" version="1" viewBox="0 0 32 32" id="Arrow"><path fill="#5fe4d4" fill-rule="evenodd" d="M32 16c0 8.796-7.205 16-16 16-8.794 0-16-7.204-16-16C0 7.207 7.206 0 16 0c8.795 0 16 7.206 16 16z" clip-rule="evenodd" class="color5dc560 svgShape"></path><path fill="#8526fe" d="m26 18.07-.69-.69-4.137-4.138-1.207 1.207 2.586 2.586h-9.828c-2.758 0-4.827-2.241-4.827-5V9.45H6v2.586c0 3.793 3.104 6.724 6.897 6.724h9.827l-2.586 2.587 1.38 1.207 4.137-4.138.345-.345z" class="colorffffff svgShape"></path></svg>